# xmcd CD database file
#
# Track frame offsets:
#	150
#	9191
#	31146
#	42782
#	69021
#	104452
#	114287
#	136101
#	148374
#	164063
#	175154
#	200163
#	221322
#	235395
#
# Disc length: 3284 seconds
#
# Revision: 0
# Processed by: cddbd v1.5.1PL2 Copyright (c) Steve Scherf et al.
# Submitted via: CDex 1.51
#
DISCID=bd0cd20e
DTITLE=Hot Club de Norvège and Camelia String Quartet - Hot Cats
DYEAR=1900
DGENRE=Jazz
TTITLE0=The Ratrace
TTITLE1=Salvador Dali Memorial Barbecue
TTITLE2=One Hot Cat
TTITLE3=White Night
TTITLE4=Midnight Special
TTITLE5=Non Stop
TTITLE6=Shoegazing
TTITLE7=One-Four-Nine
TTITLE8=Winter Blues
TTITLE9=Swing in the Rain
TTITLE10=A Fairytale in May
TTITLE11=Karlov
TTITLE12=Stone Poetry
TTITLE13=Leave It All
EXTD=
EXTT0=
EXTT1=
EXTT2=
EXTT3=
EXTT4=
EXTT5=
EXTT6=
EXTT7=
EXTT8=
EXTT9=
EXTT10=
EXTT11=
EXTT12=
EXTT13=
PLAYORDER=
